<svg width="500" height="500" viewBox="0 0 500 500" fill="none" xmlns="http://www.w3.org/2000/svg">
<path fill-rule="evenodd" clip-rule="evenodd" d="M128.5 106.994C110.043 109.741 93.6599 117.581 80.7499 129.844C77.5109 132.921 75.8869 136 77.5029 136C77.7799 136 84.6229 137.826 92.7099 140.058L107.414 144.116L113.863 140.972C123.531 136.258 132.277 134.747 147 135.249C160.779 135.719 166.872 137.345 176.932 143.238C180.553 145.36 192.68 156.551 211.617 175.25C227.631 191.063 241.361 204 242.128 204C242.895 204 250.943 196.53 260.011 187.4C290.087 157.122 303.202 145.49 312.347 140.982C331.165 131.704 350.648 132.063 371.645 142.073C389.105 150.396 399.686 164.718 404.56 186.625C406.797 196.678 406.155 212.048 403.15 220.432C398.611 233.094 396.415 235.598 341.144 291.147L287.766 344.793L280.841 370.521C277.031 384.671 274.182 396.516 274.509 396.842C274.836 397.169 306.535 365.951 344.952 327.468C404.223 268.095 415.645 256.195 420.378 248.88C436.495 223.974 439.077 196.945 428.258 166.39C418.034 137.519 395.639 117.466 364 108.855C356.741 106.879 353.091 106.538 339 106.523C322.884 106.504 322.279 106.581 313 109.812C294.694 116.186 288.033 120.928 261.34 146.59L241.873 165.306L222.686 146.334C198.509 122.427 193.679 118.745 178 112.262C164.593 106.719 144.623 104.594 128.5 106.994ZM55.6799 167.25C53.2979 173 50.1669 186.299 49.4949 193.523C47.6889 212.957 55.7739 237.96 69.9469 256.769C75.7349 264.451 102.265 291 104.153 291C105.404 291 123 273.291 123 272.032C123 271.47 116.086 264.145 107.634 255.755C90.8379 239.079 86.2899 232.62 81.3319 218.399C78.8759 211.354 78.5739 209.069 78.5389 197.27L78.4999 184.04L68.5189 174.02C63.0289 168.509 58.1979 164 57.7819 164C57.3669 164 56.4209 165.463 55.6799 167.25ZM176.5 338.993C171 340.552 164.588 342.333 162.25 342.952C159.912 343.571 158.008 344.397 158.017 344.789C158.052 346.191 208.813 397.485 209.502 396.814C210.209 396.125 198.884 352.117 196.552 346.493C195.264 343.386 188.624 335.939 187.268 336.08C186.845 336.123 182 337.434 176.5 338.993Z" fill="#E4232C"/>
<path fill-rule="evenodd" clip-rule="evenodd" d="M241 7.52503C241 7.81403 237.338 21.651 232.862 38.275C225.101 67.098 222.826 75.661 214.507 107.357C212.506 114.978 210.466 122.273 209.974 123.569C209.163 125.703 210.587 127.411 225.104 141.712C233.917 150.396 241.662 157.622 242.314 157.771C242.966 157.919 250.618 150.908 259.319 142.19L275.137 126.34L271.683 113.92C269.783 107.089 262.74 80.8 256.032 55.5C249.323 30.2 243.661 8.93803 243.449 8.25003C243.079 7.05303 241 6.43703 241 7.52503ZM31 128.672C31 129.115 58 156.492 91 189.508C124 222.525 151 250.112 151 250.812C151 251.512 124 278.9 91 311.674C58 344.449 31 371.707 31 372.249C31 373.266 31.734 373.146 41 370.611C44.025 369.783 54.15 367.098 63.5 364.644C72.85 362.191 88.15 358.103 97.5 355.561C106.85 353.018 117.2 350.227 120.5 349.359C126.883 347.679 129.368 347.001 149 341.587C155.875 339.691 168.475 336.315 177 334.085C185.525 331.855 193.487 329.753 194.693 329.414C196.662 328.86 197.047 329.393 198.473 334.648C200.476 342.027 201.688 346.573 208.565 372.5C211.628 384.05 216.611 402.725 219.638 414C222.665 425.275 225.975 437.65 226.993 441.5C228.011 445.35 231.147 457.05 233.962 467.5C236.776 477.95 239.529 488.188 240.078 490.25C241.057 493.925 244 495.59 244 492.47C244 491.628 247.417 478.241 251.594 462.72C255.77 447.199 260.001 431.35 260.997 427.5C261.992 423.65 265.529 410.375 268.857 398C275.557 373.088 283.11 344.861 285.647 335.25C286.554 331.813 287.613 329 287.999 329C288.385 329 290.167 329.511 291.959 330.136L295.216 331.271L324.108 302.392C339.999 286.508 353 273.068 353 272.524C353 271.979 348.393 266.911 342.762 261.261L332.523 250.988L365.94 217.56L399.356 184.133L398.065 179.816C394.898 169.235 387.836 158.733 379.543 152.272L375.246 148.924L365.373 151.588C359.943 153.053 349.425 155.94 342 158.004C334.575 160.068 323.1 163.169 316.5 164.895C301.564 168.802 297.623 169.885 292.202 171.573C288.505 172.724 287.825 172.708 287.345 171.456C287.037 170.655 286.25 170 285.594 170C284.939 170 274.923 179.51 263.337 191.133L242.272 212.266L220.992 190.633C209.288 178.735 199.264 169 198.716 169C198.169 169 197.187 169.73 196.535 170.622C195.457 172.095 194.073 171.903 181.424 168.531C173.766 166.489 162.55 163.504 156.5 161.896C150.45 160.289 140.55 157.579 134.5 155.874C128.45 154.169 119.45 151.735 114.5 150.466C109.55 149.197 102.8 147.415 99.5 146.507C96.2 145.598 89.45 143.789 84.5 142.487C74.078 139.747 67.226 137.91 54 134.312C38.645 130.134 34.732 129.05 32.813 128.441C31.816 128.124 31 128.228 31 128.672ZM435.555 132.635C426.785 135.067 419.376 137.29 419.09 137.576C418.805 137.862 419.108 138.862 419.764 139.798C420.42 140.734 422.605 144.356 424.618 147.846L428.279 154.191L440.64 141.861C452.005 130.522 454.288 127.818 452.25 128.106C451.837 128.165 444.325 130.202 435.555 132.635ZM358.537 320.963C347.017 332.492 337.796 342.096 338.046 342.304C338.521 342.699 379.527 353.845 425.333 366.03C440.091 369.956 452.446 372.887 452.789 372.545C453.528 371.806 381.972 300 380.496 300C379.939 300 370.057 309.433 358.537 320.963Z" fill="#4799D2"/>
</svg>
